<svg width="200" height="200" viewBox="0 0 200 200" fill="none" xmlns="http://www.w3.org/2000/svg">
<path d="M64.83 172.989H150.138C160.635 172.965 169.137 164.447 169.137 153.945V62.4629H134.244V27H64.873C54.355 27 45.83 35.526 45.83 46.041V153.945C45.83 164.452 54.332 172.965 64.83 172.989Z" fill="url(#paint0_linear_2866_253)"/>
<path d="M138.23 27.2461L169.25 58.2573H138.23V27.2461Z" fill="#3D49D2"/>
<path d="M67.558 92.4932C67.558 91.1812 68.972 90.1162 70.713 90.1162H144.259C146.003 90.1162 147.415 91.1812 147.415 92.4932V97.1841C147.415 98.4951 146.003 99.5562 144.259 99.5562H70.713C68.972 99.5562 67.558 98.4941 67.558 97.1841V92.4932ZM67.558 53.9092C67.558 52.5972 68.972 51.5332 70.713 51.5332H105.56C107.304 51.5332 108.718 52.5972 108.718 53.9092V58.5981C108.718 59.9111 107.304 60.9731 105.56 60.9731H70.713C68.972 60.9731 67.558 59.9111 67.558 58.5981V53.9092ZM67.558 73.1802C67.558 71.8682 68.972 70.8081 70.713 70.8081H144.259C146.003 70.8081 147.415 71.8692 147.415 73.1802V77.8711C147.415 79.1831 146.003 80.2432 144.259 80.2432H70.713C68.972 80.2432 67.558 79.1821 67.558 77.8711V73.1802Z" fill="#BDA5E3"/>
<path d="M45.83 143.873V153.945C45.83 164.452 54.332 172.965 64.83 172.989H150.138C160.635 172.965 169.137 164.447 169.137 153.945V143.855C151.229 141.098 130.132 139.506 107.54 139.506C84.8999 139.507 63.761 141.105 45.83 143.873Z" fill="url(#paint1_linear_2866_253)"/>
<path fill-rule="evenodd" clip-rule="evenodd" d="M141.549 148.962V138.082C138.167 137.112 135.687 135.643 134.108 133.677C132.529 131.71 131.74 129.323 131.74 126.515C131.74 123.673 132.633 121.287 134.418 119.355C136.206 117.423 138.582 116.31 141.55 116.017V113.457H145.334V116.017C148.107 116.345 150.313 117.286 151.953 118.839C153.591 120.395 154.637 122.474 155.09 125.078L148.48 125.932C148.075 123.888 147.026 122.501 145.334 121.775V131.926C149.52 133.052 152.369 134.512 153.885 136.305C155.4 138.097 156.156 140.397 156.158 143.204C156.158 146.339 155.202 148.979 153.296 151.129C151.389 153.275 148.734 154.615 145.334 155.146V158.921H141.55V155.198C138.565 154.839 136.135 153.729 134.264 151.872C132.391 150.015 131.194 147.393 130.674 144.003L137.444 143.204C137.723 144.587 138.243 145.78 139.006 146.782C139.768 147.784 140.617 148.511 141.549 148.962ZM141.549 121.667C140.529 122.031 139.724 122.631 139.132 123.461C138.539 124.293 138.243 125.21 138.243 126.215C138.243 127.132 138.513 127.985 139.055 128.772C139.595 129.559 140.427 130.195 141.549 130.68V121.667ZM145.334 149.388C146.643 149.104 147.707 148.481 148.527 147.521C149.348 146.56 149.758 145.431 149.758 144.132C149.758 142.973 149.413 141.973 148.724 141.132C148.035 140.292 146.903 139.647 145.333 139.197L145.334 149.388Z" fill="#00CCCC"/>
<path d="M30 125.606C30 118.96 35.389 113.572 42.035 113.572H93.085C99.731 113.572 105.117 118.96 105.117 125.606V150.528C105.117 157.174 99.73 162.563 93.085 162.563H42.035C35.389 162.563 30 157.174 30 150.528V125.606Z" fill="url(#paint2_linear_2866_253)"/>
<path fill-rule="evenodd" clip-rule="evenodd" d="M44.2379 148.483H48.2239V140.669C48.6319 140.748 49.1199 140.783 49.6889 140.779C50.7709 140.799 51.9149 140.617 53.1249 140.237C54.3339 139.855 55.3689 139.157 56.2309 138.138C57.0929 137.12 57.5439 135.669 57.5849 133.779C57.5799 132.809 57.3999 131.922 57.0489 131.121C56.6989 130.32 56.2079 129.65 55.5799 129.114C54.9139 128.547 54.0869 128.129 53.0959 127.861C52.1069 127.592 50.9529 127.46 49.6349 127.462C48.4849 127.465 47.4589 127.506 46.5609 127.587C45.6629 127.667 44.8879 127.771 44.2389 127.894V148.483H44.2379ZM48.2239 130.74C48.3999 130.698 48.6319 130.661 48.9179 130.629C49.2059 130.597 49.5539 130.578 49.9609 130.577C51.0859 130.58 51.9709 130.867 52.6149 131.438C53.2589 132.01 53.5869 132.855 53.5979 133.969C53.5899 135.109 53.2409 136.001 52.5529 136.648C51.8639 137.294 50.8939 137.622 49.6329 137.634C49.3379 137.634 49.0749 137.627 48.8459 137.612C48.6169 137.594 48.4089 137.567 48.2229 137.526V130.74H48.2239Z" fill="#FAECB8"/>
<path fill-rule="evenodd" clip-rule="evenodd" d="M60.5189 148.402C61.0479 148.472 61.6949 148.534 62.4569 148.589C63.2189 148.642 64.0819 148.671 65.0479 148.673C66.8699 148.674 68.4959 148.463 69.9179 148.039C71.3419 147.616 72.5309 146.979 73.4859 146.126C74.3169 145.422 75.0409 144.381 75.6579 143.005C76.2749 141.629 76.6009 139.831 76.6319 137.607C76.6229 135.725 76.3479 134.128 75.8029 132.814C75.2539 131.5 74.4839 130.439 73.4869 129.63C72.6319 128.91 71.5869 128.37 70.3539 128.007C69.1209 127.645 67.6429 127.462 65.9149 127.462C64.8929 127.462 63.9209 127.5 63.0049 127.577C62.0849 127.653 61.2589 127.758 60.5209 127.893V148.402H60.5189ZM64.5039 130.767C64.7199 130.725 64.9839 130.687 65.3009 130.657C65.6149 130.623 65.9829 130.606 66.4029 130.605C68.2809 130.604 69.7509 131.189 70.8109 132.362C71.8729 133.533 72.4129 135.3 72.4299 137.659C72.4029 140.386 71.8179 142.376 70.6759 143.633C69.5309 144.891 67.9919 145.503 66.0509 145.476C65.7749 145.477 65.4999 145.475 65.2269 145.465C64.9539 145.457 64.7119 145.433 64.5039 145.395V130.767Z" fill="#FAECB8"/>
<path d="M83.7159 148.483V139.774H90.392V136.495H83.7159V130.984H90.879V127.623H79.705V148.483H83.7159Z" fill="#FAECB8"/>
<defs>
<linearGradient id="paint0_linear_2866_253" x1="131.515" y1="175.336" x2="77.0304" y2="27.0205" gradientUnits="userSpaceOnUse">
<stop stop-color="#1A3ED4"/>
<stop offset="0.302" stop-color="#1A3ED4"/>
<stop offset="0.8314" stop-color="#A787DA"/>
<stop offset="1" stop-color="#A787DA"/>
</linearGradient>
<linearGradient id="paint1_linear_2866_253" x1="169.138" y1="156.25" x2="45.8306" y2="156.25" gradientUnits="userSpaceOnUse">
<stop stop-color="#4605FA"/>
<stop offset="1" stop-color="#21C5BE"/>
</linearGradient>
<linearGradient id="paint2_linear_2866_253" x1="29.9996" y1="138.068" x2="105.117" y2="138.068" gradientUnits="userSpaceOnUse">
<stop stop-color="#FF9FD3"/>
<stop offset="1" stop-color="#FF842B"/>
</linearGradient>
</defs>
</svg>
